<svg width="1182" height="435" viewBox="0 0 1182 435" fill="none" xmlns="http://www.w3.org/2000/svg">
<g id="tricentis-flood">
<rect width="1182" height="435" fill="white"/>
<g id="Group 3">
<mask id="mask0" mask-type="alpha" maskUnits="userSpaceOnUse" x="0" y="0" width="432" height="433">
<path id="Clip 2" fill-rule="evenodd" clip-rule="evenodd" d="M0.179994 216.564V207.659C4.85553 92.2308 100.027 0.563999 216.627 0.563999C335.583 0.563999 432 96.981 432 216.564C432 335.52 335.583 432.564 216 432.564C100.011 432.564 4.85524 340.897 0.179993 225.469L0.179994 225.469V216.564ZM395.067 216.564C395.067 117.429 315.135 37.497 216.519 37.497C117.384 37.497 36.933 117.429 36.933 216.564C36.933 315.699 117.384 395.631 216 395.631C315.135 395.631 395.067 315.18 395.067 216.564Z" fill="white"/>
</mask>
<g mask="url(#mask0)">
<path id="Fill 1" fill-rule="evenodd" clip-rule="evenodd" d="M0.180004 432.6H432.18V0.24H0.180004V432.6Z" fill="#4285F4"/>
</g>
</g>
<g id="Group 6">
<mask id="mask1" mask-type="alpha" maskUnits="userSpaceOnUse" x="60" y="136" width="310" height="149">
<path id="Clip 5" fill-rule="evenodd" clip-rule="evenodd" d="M369.729 270.381C369.729 261.945 359.37 257.727 356.934 255.318C354.495 252.906 350.838 248.691 347.184 240.255C342.918 230.619 339.87 217.365 336.213 205.314C325.854 170.976 315.495 136.035 286.245 136.035C272.229 136.035 260.652 144.468 252.117 160.734C246.024 172.182 241.149 186.639 236.883 200.496C232.617 213.147 228.351 225.798 223.476 234.834C219.819 242.064 216.165 244.476 214.944 245.076C207.024 245.679 203.367 242.064 193.617 228.207C184.476 214.953 171.681 196.881 146.085 196.881C119.88 196.881 107.085 217.365 97.944 233.028C88.803 248.088 83.928 253.509 76.005 255.318C68.082 257.127 60.771 261.945 60.771 270.381C60.771 278.814 67.473 284.235 76.005 284.235C102.21 284.235 115.005 263.754 124.146 248.088C133.287 233.028 138.162 227.001 146.085 227.001C154.617 227.001 159.492 232.425 168.633 245.679C178.383 259.533 191.181 277.608 217.992 275.799C245.415 273.39 255.774 241.461 266.136 210.738C270.402 198.087 275.277 185.436 279.543 176.397C282.588 169.17 285.027 169.77 286.854 169.77C288.681 169.77 291.12 168.567 295.386 180.012C299.043 189.651 303.918 202.905 307.572 214.953C317.934 249.294 328.293 284.235 357.543 284.235C364.245 283.029 369.729 278.814 369.729 270.381Z" fill="white"/>
</mask>
<g mask="url(#mask1)">
<path id="Fill 4" fill-rule="evenodd" clip-rule="evenodd" d="M60.771 284.235H369.729V136.035H60.771V284.235Z" fill="#4285F4"/>
</g>
</g>
<g id="Group">
<path id="Fill 7" fill-rule="evenodd" clip-rule="evenodd" d="M522.376 112.385C532.209 101.461 546.441 96 565.073 96L654.185 96.3096V276.238C654.185 287.987 655.32 295.981 657.601 300.2C659.875 304.426 663.913 307.572 669.708 309.631C683.785 313.958 691.547 316.121 693 316.121V339H660.396C645.491 339 634.725 334.627 628.102 325.862C621.476 317.1 618.164 302.007 618.164 280.572V125.059H572.213C562.481 125.059 555.291 127.536 550.635 132.482C545.979 137.427 543.647 146.599 543.647 159.997V174.838H584.013V204.207H543.336V339H507.319V204.207H480V180.093L507.63 174.838V159.997C507.63 139.18 512.546 123.31 522.376 112.385Z" fill="#4285F4"/>
<path id="Fill 8" fill-rule="evenodd" clip-rule="evenodd" d="M741.125 223.218C739.796 227.463 738.874 232.536 738.37 238.436C737.852 244.337 737.599 251.431 737.599 259.707C737.599 267.986 737.906 274.924 738.517 280.514C739.131 286.104 740.207 290.76 741.743 294.488C743.276 298.212 744.963 301.213 746.806 303.491C748.647 305.772 751.101 307.529 754.171 308.77C759.284 310.429 765.676 311.257 773.354 311.257C781.029 311.257 786.6 311 790.076 310.476C793.557 309.963 797.03 308.827 800.506 307.063C803.99 305.302 806.545 302.562 808.185 298.834C811.661 290.554 813.405 279.889 813.405 266.851C813.405 253.806 813.144 244.337 812.637 238.436C812.122 232.536 811.197 227.463 809.871 223.218C808.542 218.981 807.059 215.666 805.419 213.283C803.779 210.904 801.432 209.089 798.362 207.849C793.46 205.781 787.104 204.696 779.336 204.588C771.557 204.486 766.037 204.642 762.764 205.054C759.494 205.47 756.268 206.348 753.099 207.693C749.926 209.042 747.467 210.904 745.731 213.283C743.991 215.666 742.458 218.981 741.125 223.218ZM717.961 323.21C712.226 316.489 708.135 308.104 705.684 298.053C703.229 288.02 702 273.579 702 254.735C702 235.902 704.401 220.272 709.207 207.849C714.016 195.426 721.588 186.683 731.921 181.607C742.254 176.538 756.829 174 775.648 174C803.472 174 822.652 180.212 833.193 192.631C843.73 205.054 849 227.156 849 258.933C849 290.71 843.73 312.501 833.193 324.295C822.652 336.099 803.472 342 775.648 342C761.538 342 749.819 340.543 740.514 337.654C731.206 334.754 723.681 329.942 717.961 323.21Z" fill="#4285F4"/>
<path id="Fill 9" fill-rule="evenodd" clip-rule="evenodd" d="M909.126 223.218C907.793 227.463 906.871 232.536 906.364 238.436C905.85 244.337 905.596 251.431 905.596 259.707C905.596 267.986 905.907 274.924 906.518 280.514C907.132 286.104 908.208 290.76 909.737 294.488C911.274 298.212 912.96 301.213 914.804 303.491C916.644 305.772 919.099 307.529 922.168 308.77C927.281 310.429 933.681 311.257 941.349 311.257C949.024 311.257 954.595 311 958.079 310.476C961.552 309.963 965.028 308.827 968.512 307.063C971.985 305.302 974.54 302.562 976.18 298.834C979.664 290.554 981.401 279.889 981.401 266.851C981.401 253.806 981.143 244.337 980.636 238.436C980.121 232.536 979.199 227.463 977.874 223.218C976.541 218.981 975.058 215.666 973.422 213.283C971.782 210.904 969.427 209.089 966.361 207.849C961.455 205.781 955.109 204.696 947.334 204.588C939.555 204.486 934.031 204.642 930.765 205.054C927.489 205.47 924.266 206.348 921.093 207.693C917.92 209.042 915.469 210.904 913.732 213.283C911.992 215.666 910.455 218.981 909.126 223.218ZM885.954 323.21C880.226 316.489 876.135 308.104 873.68 298.053C871.222 288.02 870 273.579 870 254.735C870 235.902 872.401 220.272 877.211 207.849C882.013 195.426 889.585 186.683 899.918 181.607C910.248 176.538 924.827 174 943.654 174C971.474 174 990.655 180.212 1001.19 192.631C1011.73 205.054 1017 227.156 1017 258.933C1017 290.71 1011.73 312.501 1001.19 324.295C990.655 336.099 971.474 342 943.654 342C929.536 342 917.82 340.543 908.512 337.654C899.2 334.754 891.682 329.942 885.954 323.21Z" fill="#4285F4"/>
<path id="Fill 10" fill-rule="evenodd" clip-rule="evenodd" d="M1074.07 260.206C1074.07 293.382 1082.47 309.965 1099.27 309.965C1115.64 309.965 1131.19 306.03 1145.92 298.147V209.513C1131.82 204.954 1116.27 202.67 1099.27 202.67C1093.67 202.67 1089.11 204.024 1085.58 206.714C1077.91 212.729 1074.07 230.558 1074.07 260.206ZM1038 258.338C1038 224.131 1043.07 200.808 1053.23 188.363C1061.73 177.794 1074.7 172.503 1092.11 172.503C1099.58 172.503 1108.44 173.543 1118.71 175.614C1128.97 177.692 1138.14 180.488 1146.23 184.011V96H1182V340.132H1153.39L1145.92 322.715C1140.32 327.277 1132.28 331.63 1121.81 335.779C1111.35 339.929 1101.44 342 1092.11 342C1056.04 342 1038 314.115 1038 258.338Z" fill="#4285F4"/>
</g>
</g>
</svg>
